<svg xmlns="http://www.w3.org/2000/svg" viewBox="0 0 64 64">
  <defs>
    <linearGradient id="bg" x1="10" y1="8" x2="54" y2="58" gradientUnits="userSpaceOnUse">
      <stop offset="0" stop-color="#163455"/>
      <stop offset="1" stop-color="#0d8b8b"/>
    </linearGradient>
    <linearGradient id="globe" x1="20" y1="9" x2="44" y2="33" gradientUnits="userSpaceOnUse">
      <stop offset="0" stop-color="#7ee0d3"/>
      <stop offset="1" stop-color="#f3c45b"/>
    </linearGradient>
  </defs>
  <rect width="64" height="64" rx="16" fill="url(#bg)"/>
  <circle cx="32" cy="20" r="12" fill="url(#globe)" stroke="#f4fbfb" stroke-width="2"/>
  <path d="M24 20h16M32 8c-3 3-4.5 7-4.5 12s1.5 9 4.5 12c3-3 4.5-7 4.5-12S35 11 32 8Zm-10 0c3 2.5 6.5 3.8 10 3.8S39 10.5 42 8m-20 24c3-2.5 6.5-3.8 10-3.8S39 29.5 42 32" fill="none" stroke="#f4fbfb" stroke-width="1.5" stroke-linecap="round" opacity=".85"/>
  <circle cx="32" cy="31" r="4.2" fill="#f4fbfb"/>
  <path d="M22 54c1.8-8 5.7-14.3 10-14.3S40.2 46 42 54" fill="none" stroke="#f4fbfb" stroke-width="4.5" stroke-linecap="round"/>
  <path d="M24.5 45.5 20 35m19.5 10.5L44 35" fill="none" stroke="#f4fbfb" stroke-width="4" stroke-linecap="round"/>
  <path d="M29 54l-2.5-10m8 10 2.5-10" fill="none" stroke="#f4fbfb" stroke-width="4" stroke-linecap="round"/>
</svg>
